<svg xmlns="http://www.w3.org/2000/svg" id="Layer_1" viewBox="0 0 288 72" width="288" height="72"><style>.st0{fill:#013333}</style><path d="M233.7 63.3c-.4-1.9-.6-3.8-.6-5.7l-.3-8.9c-.2-3.9-.9-6.6-2.2-8.4-1.3-1.7-3.3-3.1-5.9-4.2 2.8-1.4 5.2-3.5 6.9-6.1 1.6-2.5 2.5-5.8 2.5-9.8 0-7.6-3.1-12.9-9.2-15.7-3.2-1.5-7.3-2.2-12.3-2.2h-30.4l-12.5 54.1-15.1-54h-9.7l-15 54c-2.2-9.3-4.3-18.7-6.5-28-.8-6.5-2.9-12-6.3-16.5C111.5 4.4 102.8.6 91 .6 79.8.6 71.3 4.7 65.6 12.9 61.1 19.3 58.9 27 58.9 36c0 10 2.6 18.2 7.8 24.7 5.9 6.8 13.9 10.2 24.1 10.2 11 0 19.4-3.9 25.3-11.6 1.7-2.3 3.2-4.8 4.3-7.4l4.4 17h9.5l15.4-55.1L165 68.9h9.5l7.5-28.6 29.1.1c3.6 0 6.2.4 7.9 1.2 2.9 1.5 4.5 4.4 4.7 8.7l.5 11.1c0 1.8.2 3.5.5 5.2.1.8.4 1.5.7 2.2h11v-1.5c-1.2-.5-2.1-1.9-2.7-4zm-124.5-9c-3.5 5.7-9.3 8.5-17.2 8.5-8.4 0-14.4-2.5-18.1-7.6-3.7-5.1-5.6-11.3-5.6-18.6 0-9.2 2.2-16.2 6.5-20.9s10-7.1 16.8-7.1c7.1 0 12.7 2.4 16.8 7.2s6.1 11.1 6.1 18.9c0 7.3-1.8 13.9-5.3 19.6zm112.1-24c-2.4 1.7-5.6 2.5-9.7 2.5h-27.5l6-22.7h22.7c3 0 5.4.5 7.2 1.4 3.3 1.7 5 4.9 5 9.7-.1 4.4-1.3 7.4-3.7 9.1z" class="st0"/></svg>